<svg width="49" height="34" viewBox="0 0 49 34" fill="none" xmlns="http://www.w3.org/2000/svg">
<path d="M11 4.84078C12 5.84078 14.1621 8.98971 14.1621 8.98971H33.1621C33.1621 8.98971 33.5 8.62447 35.5 4.34031C37.5 0.0561395 39.5 -1.25576 39.5 1.34078C39.5 3.93733 39.6621 33.9897 39.6621 33.9897H8.16211C8.16211 33.9897 8 5.34078 8 3.34078C8 1.34078 10 3.84078 11 4.84078Z" fill="#0B0A07"/>
<circle cx="19" cy="16.8403" r="4" fill="white"/>
<circle cx="19" cy="15.8403" r="1" fill="#0B0A07"/>
<circle cx="30" cy="16.8403" r="4" fill="white"/>
<circle cx="31" cy="16.8403" r="2" fill="#0B0A07"/>
<path d="M25.1469 24.8117C24.646 24.8117 24 23.3403 24.3593 22.5626C24.7187 21.7848 26.4578 22.0757 26.6483 22.8117C26.8388 23.5477 25.6479 24.8116 25.1469 24.8117Z" fill="white"/>
<line x1="0.17949" y1="16.3737" x2="13.1795" y2="21.3737" stroke="#0B0A07"/>
<line x1="0.00199568" y1="24.3403" x2="13.9303" y2="24.3959" stroke="#0B0A07"/>
<line x1="35.002" y1="24.3403" x2="48.9303" y2="24.3959" stroke="#0B0A07"/>
<line x1="34.8802" y1="20.3549" x2="46.8085" y2="17.4105" stroke="#0B0A07"/>
<line x1="0.776393" y1="33.3931" x2="12.7764" y2="27.3931" stroke="#0B0A07"/>
<line x1="45.7107" y1="33.5234" x2="35.8038" y2="29.3003" stroke="#0B0A07"/>
</svg>
